<svg version="1.1" preserveAspectRatio="none" xmlns="http://www.w3.org/2000/svg" width="500" height="500" viewBox="0 0 500 500"><rect width="100%" height="100%" fill="#F8EEFF" fill-opacity="1"/><svg viewBox="780.2213 516.5905 173.5938 120" width="333" height="230.19255295984075" x="83.5px" y="134.9037px" xmlns="http://www.w3.org/2000/svg" xmlns:xlink="http://www.w3.org/1999/xlink" preserveAspectRatio="none"><defs></defs><style>.companyName {fill:#BB90DB;fill-opacity:1;}.icon3-str {stroke:#FFD649;stroke-opacity:1;}.shapeStroke-str {stroke:#BB90DB;stroke-opacity:1;}</style><defs></defs><g opacity="1" transform="rotate(0 797.2213 516.5905)">
<svg width="156.5938" height="120" x="797.2213" y="516.5905" version="1.1" preserveAspectRatio="none" viewBox="2.76 -28.56 38.00000000000001 29.12">
  <g transform="matrix(1 0 0 1 0 0)" class="companyName"><path id="id-D6z1nYkh2" d="M2.76-0.88L2.76-0.88L3-3.28L3.24-3.28Q4.80-1.92 6.76-1.16Q8.72-0.40 10.64-0.40L10.64-0.40Q13.36-0.40 15.04-1.90Q16.72-3.40 16.72-5.92L16.72-5.92Q16.72-7.32 16.10-8.52Q15.48-9.72 14.06-10.96Q12.64-12.20 10.16-13.64L10.16-13.64Q8.44-14.64 6.88-15.74Q5.32-16.84 4.32-18.30Q3.32-19.76 3.32-21.80L3.32-21.80Q3.32-24.84 5.52-26.70Q7.72-28.56 11.32-28.56L11.32-28.56Q12.92-28.56 14.76-28.22Q16.60-27.88 17.60-27.36L17.60-27.36L17.40-25.12L17.16-25.12Q14.88-27.60 11.32-27.60L11.32-27.60Q8.76-27.60 7.20-26.30Q5.64-25 5.64-22.80L5.64-22.80Q5.64-21.16 6.50-19.98Q7.36-18.80 8.72-17.86Q10.08-16.92 11.64-16.04L11.64-16.04Q13.44-15 15.14-13.84Q16.84-12.68 17.94-11.06Q19.04-9.44 19.04-7L19.04-7Q19.04-4.76 18-3.06Q16.96-1.36 15.06-0.40Q13.16 0.56 10.64 0.56L10.64 0.56Q9.04 0.56 6.88 0.16Q4.72-0.24 2.76-0.88Z M24.48-0.88L24.48-0.88L24.72-3.28L24.96-3.28Q26.52-1.92 28.48-1.16Q30.44-0.40 32.36-0.40L32.36-0.40Q35.08-0.40 36.76-1.90Q38.44-3.40 38.44-5.92L38.44-5.92Q38.44-7.32 37.82-8.52Q37.20-9.72 35.78-10.96Q34.36-12.20 31.88-13.64L31.88-13.64Q30.16-14.64 28.60-15.74Q27.04-16.84 26.04-18.30Q25.04-19.76 25.04-21.80L25.04-21.80Q25.04-24.84 27.24-26.70Q29.44-28.56 33.04-28.56L33.04-28.56Q34.64-28.56 36.48-28.22Q38.32-27.88 39.32-27.36L39.32-27.36L39.12-25.12L38.88-25.12Q36.60-27.60 33.04-27.60L33.04-27.60Q30.48-27.60 28.92-26.30Q27.36-25 27.36-22.80L27.36-22.80Q27.36-21.16 28.22-19.98Q29.08-18.80 30.44-17.86Q31.80-16.92 33.36-16.04L33.36-16.04Q35.16-15 36.86-13.84Q38.56-12.68 39.66-11.06Q40.76-9.44 40.76-7L40.76-7Q40.76-4.76 39.72-3.06Q38.68-1.36 36.78-0.40Q34.88 0.56 32.36 0.56L32.36 0.56Q30.76 0.56 28.60 0.16Q26.44-0.24 24.48-0.88Z"/></g>
</svg>
</g><g opacity="1" transform="rotate(0 780.2213 516.5905)">
<svg width="3" height="120" x="780.2213" y="516.5905" version="1.1" preserveAspectRatio="none" viewBox="0 0 3 120">
  <defs><rect x="0" y="0" width="3" height="120" rx="0px" ry="0px" id="id-tBXipXk0b1673074438238"></rect></defs><use class="companyName shapeStroke-str" style="stroke-width:0;" xlink:href="#id-tBXipXk0b1673074438238"></use>
</svg>
</g></svg></svg>